<svg width="160" height="40" viewBox="0 0 160 40" fill="none" xmlns="http://www.w3.org/2000/svg" role="img" aria-label="Creator Founder">
  <rect x="0" y="2" width="36" height="36" rx="10" fill="#FAFAFA"/>
  <path d="M14.5 13.2c-3.6 0-6.3 2.9-6.3 6.8s2.7 6.8 6.3 6.8c2.2 0 3.9-1 4.9-2.5l-2.3-1.4c-.5.8-1.4 1.3-2.5 1.3-1.9 0-3.2-1.6-3.2-3.8s1.3-3.8 3.2-3.8c1 0 1.9.5 2.4 1.3l2.3-1.4c-1-1.6-2.7-2.6-4.8-2.6Z" fill="#09090B"/>
  <path d="M22.2 13.5v12.8h3v-4.6h4.4v-2.7h-4.4v-2.8h4.9v-2.7h-7.9Z" fill="#09090B"/>
  <text x="46" y="20" font-family="'Space Grotesk', 'Segoe UI', sans-serif" font-size="15" font-weight="700" fill="#FAFAFA" letter-spacing="0.2">Creator</text>
  <text x="46" y="34" font-family="'Space Grotesk', 'Segoe UI', sans-serif" font-size="15" font-weight="700" fill="#8A8A94" letter-spacing="0.2">Founder</text>
</svg>
